<svg class="icon" viewBox="0 0 1024 1024" version="1.1" xmlns="http://www.w3.org/2000/svg" p-id="658" height="128" width="128"><path d="M42.958 560.838c13.623 13.623 35.692 13.623 49.315 0L511.5 141.6l419.227 419.238c13.623 13.623 35.692 13.623 49.315 0s13.623-35.692 0-49.315L536.158 67.638c-13.623-13.623-35.692-13.623-49.315 0L42.958 511.511c-13.623 13.635-13.623 35.704 0 49.327zM42.958 909.588c13.623 13.623 35.692 13.623 49.315 0L511.5 490.35l419.227 419.238c13.623 13.623 35.692 13.623 49.315 0s13.623-35.692 0-49.315L536.158 416.388c-13.623-13.623-35.692-13.623-49.315 0L42.958 860.261c-13.623 13.635-13.623 35.704 0 49.327z" p-id="659"></path></svg>