<svg class="icon" viewBox="0 0 1024 1024" version="1.1" xmlns="http://www.w3.org/2000/svg" p-id="10683" height="128" width="128"><path d="M836.861 186.869c0-23.815-22.973-47.164-47.142-47.164H614.601V81.214h152.072c76.049 0.07 129.052 42.908 128.68 116.98v163.773h-58.491V186.869zM181.772 186.498v175.469h-58.489V198.194c0-74.083 42.871-116.98 116.98-116.98h163.773v58.492H228.564c-23.746-0.001-46.792 23.639-46.792 46.792zM181.772 748.224c0 22.542 22.939 46.571 47.925 46.571h174.339v58.488H228.564c-74.094 0-105.28-42.886-105.28-116.98V572.531h58.489v175.693zM836.861 747.664V572.531h58.491v163.772c0.07 74.094-42.558 116.932-116.98 116.98H614.601v-58.488h174.838c24.504 0 47.422-23.492 47.422-47.131zM1000.633 467.273c0 19.396-15.724 35.119-35.119 35.119H53.119C33.723 502.392 18 486.668 18 467.273c0-19.396 15.724-35.119 35.119-35.119h912.395c19.395 0 35.119 15.723 35.119 35.119z" fill="#1296db" p-id="10684"></path></svg>