<svg t="1553591473340" class="icon" viewBox="0 0 1024 1024" version="1.1" xmlns="http://www.w3.org/2000/svg" p-id="1119" height="64" width="64"><path d="M 512 960 C 265 960 64 759 64 512 S 265 64 512 64 s 448 201 448 448 s -201 448 -448 448 Z m 0 -806.4 c -197.6 0 -358.4 160.8 -358.4 358.4 S 314.4 870.4 512 870.4 S 870.4 709.6 870.4 512 S 709.6 153.6 512 153.6 Z" fill="#2ECC71" p-id="1120"></path><path d="M 723 374.7 c -17.4 -17.4 -45.9 -17.4 -63.4 0 L 480.3 554 L 364.4 438.1 c -17.4 -17.4 -45.9 -17.4 -63.4 0 c -17.4 17.4 -17.4 45.9 0 63.4 l 145.9 145.9 c 0.5 0.6 0.9 1.3 1.5 1.9 c 6.6 6.6 14.8 10.7 23.4 12.3 c 14.2 2.8 29.4 -1.3 40.3 -12.2 c 0.8 -0.8 1.3 -1.7 2 -2.5 L 723 438.1 c 17.4 -17.5 17.4 -46 0 -63.4 Z" fill="#2ECC71" p-id="1121"></path></svg>