<svg t="1554109921130" class="icon" viewBox="0 0 1024 1024" version="1.1" xmlns="http://www.w3.org/2000/svg" p-id="1013" height="64" width="64"><path d="M512 968.704c-61.639 0-121.453-12.080-177.78-35.904-54.388-23.005-103.226-55.93-145.158-97.861-41.931-41.932-74.858-90.77-97.861-145.158-23.824-56.326-35.904-116.141-35.904-177.78 0-61.639 12.080-121.453 35.904-177.78 23.005-54.388 55.93-103.226 97.861-145.158 41.932-41.931 90.77-74.858 145.158-97.861 56.326-23.824 116.141-35.904 177.78-35.904 61.639 0 121.453 12.080 177.78 35.904 54.388 23.005 103.226 55.93 145.158 97.861 41.932 41.932 74.858 90.77 97.861 145.158 23.824 56.326 35.904 116.141 35.904 177.78 0 61.639-12.080 121.453-35.904 177.78-23.005 54.388-55.93 103.226-97.861 145.158s-90.77 74.858-145.158 97.861c-56.326 23.824-116.141 35.904-177.78 35.904zM512 123.563c-214.186 0-388.437 174.252-388.437 388.437s174.252 388.437 388.437 388.437 388.437-174.252 388.437-388.437-174.252-388.437-388.437-388.437z" fill="" p-id="1014"></path></svg>