<svg class="icon" viewBox="0 0 1024 1024" version="1.1" xmlns="http://www.w3.org/2000/svg" p-id="489" height="128" width="128"><path d="M512 0C228.894118 0 0 228.894118 0 512s228.894118 512 512 512 512-228.894118 512-512S795.105882 0 512 0z m252.988235 355.388235L445.741176 671.623529c-6.023529 6.023529-15.058824 9.035294-21.082352 9.035295s-15.058824-3.011765-21.082353-9.035295l-144.564706-144.564705c-12.047059-12.047059-12.047059-30.117647 0-42.164706 12.047059-12.047059 30.117647-12.047059 42.164706 0l123.482353 123.482353 298.164705-298.164706c12.047059-12.047059 30.117647-12.047059 42.164706 0s12.047059 33.129412 0 45.17647z" p-id="490"></path></svg>