<svg class="icon" viewBox="0 0 1024 1024" version="1.1" xmlns="http://www.w3.org/2000/svg" p-id="478" height="128" width="128"><path d="M512 0C229.376 0 0 229.376 0 512s229.376 512 512 512 512-229.376 512-512S794.624 0 512 0z m0 819.2c-29.184 0-52.224-23.552-52.224-52.224 0-29.184 23.552-52.224 52.224-52.224 29.184 0 52.224 23.552 52.224 52.224S541.184 819.2 512 819.2z m56.832-584.192l-10.752 372.736c-0.512 19.456-20.48 34.816-44.032 34.816h-8.192c-23.552 0-43.52-15.36-44.032-34.816L450.56 235.008c-1.024-29.696 23.04-54.784 53.76-54.784h10.752c30.72 0 54.784 25.088 53.76 54.784z" p-id="479"></path></svg>